#!OML:ASF \\sashay\E\Suitcase\Project 1\Capture day 1\Session 1\Male1.ASF
:FULLY-SPECIFIED
:DEGREES
75
root 1.28415 17.5538 -35.4117 9.08078 0.127086 -5.25108
lowerback -6.42221 -0.120373 0.594744
upperback -3.20069 -0.227788 3.73291
thorax 0.313674 -0.0936743 3.5001
lowerneck -18.2718 -1.21297 -0.893083
upperneck 16.3481 -1.31621 -0.506437
head 8.07603 -0.733619 -0.183015
rclavicle 2.47378e-014 -3.65764e-014
rhumerus -33.0343 -4.00895 -80.8198
rradius 24.2919
rwrist -10.7822
rhand -14.964 16.7324
rfingers 7.12502
rthumb 11.1995 -12.9487
lclavicle 2.47378e-014 -3.65764e-014
lhumerus -37.8351 7.83439 84.6638
lradius 29.868
lwrist -5.18721
lhand -3.73311 42.261
lfingers 7.12502
lthumb 22.0102 71.0286
rfemur -10.2901 2.64197 22.1019
rtibia 22.1709
rfoot -18.3952 -10.1846
rtoes 1.02045
lfemur -11.5098 -3.09966 -12.9102
ltibia 25.681
lfoot -21.1144 10.4568
ltoes -11.3781
76
root 1.28237 17.5546 -35.4098 8.98534 0.256894 -5.24098
lowerback -6.30769 -0.167751 0.50871
upperback -3.20113 -0.283372 3.78691
thorax 0.253303 -0.119871 3.60124
lowerneck -18.2504 -1.18182 -1.57148
upperneck 16.2025 -1.27168 0.400661
head 8.03448 -0.661168 0.236651
rclavicle -2.80939e-015 3.73715e-014
rhumerus -33.221 -3.80106 -80.8249
rradius 24.4773
rwrist -11.0276
rhand -15.2827 16.7988
rfingers 7.12502
rthumb 10.892 -12.8987
lclavicle -2.80939e-015 3.73715e-014
lhumerus -37.8887 7.81764 84.7557
lradius 29.857
lwrist -5.2889
lhand -4.2966 41.89
lfingers 7.12502
lthumb 21.4691 70.7203
rfemur -10.1957 2.86336 22.1011
rtibia 22.126
rfoot -18.4973 -10.419
rtoes 2.62733
lfemur -11.4901 -3.10904 -12.9047
ltibia 25.7248
lfoot -21.2166 10.375
ltoes -11.1274
77
root 1.28415 17.5508 -35.4171 9.01946 0.108641 -5.26424
lowerback -6.29738 -0.11296 0.570807
upperback -3.1972 -0.21347 3.76354
thorax 0.247279 -0.0856773 3.54629
lowerneck -17.8944 -1.24778 -0.817848
upperneck 15.8579 -1.36832 -0.616264
head 7.84543 -0.76373 -0.233044
rclavicle -1.36369e-014 8.34896e-015
rhumerus -33.0757 -4.01938 -80.774
rradius 24.2831
rwrist -10.8978
rhand -14.7825 17.2658
rfingers 7.12502
rthumb 11.3745 -12.4058
lclavicle -1.36369e-014 8.34896e-015
lhumerus -37.8571 7.81698 84.7144
lradius 29.7925
lwrist -5.2448
lhand -4.37532 41.606
lfingers 7.12502
lthumb 21.3935 70.4449
rfemur -10.2305 2.73502 22.1236
rtibia 22.1601
rfoot -18.3347 -10.2978
rtoes 1.38431
lfemur -11.4964 -3.08939 -12.8912
ltibia 25.6955
lfoot -21.0813 10.4413
ltoes -11.4492
78
root 1.28621 17.5511 -35.4192 8.97676 0.172341 -5.25183
lowerback -6.16508 -0.132721 0.601874
upperback -3.26382 -0.235283 3.76022
thorax 0.106267 -0.0956895 3.52385
lowerneck -18.2585 -1.15852 -1.31112
upperneck 16.4902 -1.22742 -0.0137918
head 8.12745 -0.667341 0.0602693
rclavicle 8.10669e-015 1.55052e-014
rhumerus -33.2928 -3.82617 -80.843
rradius 24.4617
rwrist -11.0253
rhand -15.2367 16.7475
rfingers 7.12502
rthumb 10.9364 -12.9476
lclavicle 8.10669e-015 1.55052e-014
lhumerus -38.0684 7.78367 84.7075
lradius 29.9229
lwrist -5.21331
lhand -3.93981 42.2704
lfingers 7.12502
lthumb 21.8118 71.0613
rfemur -10.2206 2.73872 22.1122
rtibia 22.1661
rfoot -18.2785 -10.4118
rtoes 1.02133
lfemur -11.4506 -3.15384 -12.9089
ltibia 25.6892
lfoot -21.2418 10.2885
ltoes -9.6667
79
root 1.28576 17.5541 -35.4185 9.0318 -0.049912 -5.27074
lowerback -6.28646 -0.0485896 0.592526
upperback -3.1842 -0.128961 3.75059
thorax 0.249702 -0.043762 3.52594
lowerneck -17.9783 -1.28925 -0.76837
upperneck 15.998 -1.42715 -0.66527
head 7.9059 -0.793948 -0.265752
rclavicle -3.67441e-015 4.77083e-015
rhumerus -33.1506 -3.95358 -80.8335
rradius 24.5073
rwrist -10.9355
rhand -14.909 16.9148
rfingers 7.12502
rthumb 11.2525 -12.7634
lclavicle -3.67441e-015 4.77083e-015
lhumerus -37.817 7.81025 84.723
lradius 29.702
lwrist -5.20071
lhand -3.83176 42.7834
lfingers 7.12502
lthumb 21.9155 71.5622
rfemur -10.3384 2.758 22.0979
rtibia 22.2354
rfoot -18.1576 -10.2336
rtoes 1.1179
lfemur -11.462 -3.03507 -12.919
ltibia 25.667
lfoot -21.0866 10.48
ltoes -10.7918
80
root 1.28815 17.5549 -35.4201 8.93854 0.244153 -5.20701
lowerback -6.06857 -0.153353 0.602183
upperback -3.27757 -0.259353 3.73524
thorax 0.0398358 -0.107473 3.49621
lowerneck -18.0529 -1.20699 -1.19173
upperneck 16.208 -1.31347 -0.0927226
head 7.99617 -0.708244 0.00608946
rclavicle 4.09372e-015 1.70955e-014
rhumerus -33.3922 -3.70311 -80.9406
rradius 24.7174
rwrist -11.1514
rhand -15.4282 16.4528
rfingers 7.12502
rthumb 10.7518 -13.252
lclavicle 4.09372e-015 1.70955e-014
lhumerus -38.1857 7.54682 84.7942
lradius 30.0188
lwrist -4.78444
lhand -3.8671 42.8386
lfingers 7.12502
lthumb 21.8816 71.6213
rfemur -10.165 2.78158 22.0653
rtibia 22.2132
rfoot -18.4592 -10.4338
rtoes 2.14918
lfemur -11.4236 -3.14317 -12.9447
ltibia 25.6872
lfoot -21.1282 10.3217
ltoes -10.635
81
root 1.28716 17.5531 -35.4227 8.94328 0.0908177 -5.20394
lowerback -6.11873 -0.0948957 0.609411
upperback -3.19742 -0.185858 3.69473
thorax 0.146134 -0.0721892 3.45436
lowerneck -18.1718 -1.21106 -1.16418
upperneck 16.2197 -1.33773 -0.0273486
head 8.02109 -0.711161 0.0197154
rclavicle -1.38745e-014 -4.96962e-014
rhumerus -33.2654 -3.95249 -80.9405
rradius 24.7762
rwrist -10.9976
rhand -15.182 16.6182
rfingers 7.12502
rthumb 10.9892 -13.0741
lclavicle -1.38745e-014 -4.96962e-014
lhumerus -38.0246 7.51619 84.7576
lradius 29.9453
lwrist -4.86453
lhand -3.57981 43.6842
lfingers 7.12502
lthumb 22.1574 72.4344
rfemur -10.2295 2.72642 22.053
rtibia 22.2529
rfoot -18.3453 -10.3218
rtoes 1.12068
lfemur -11.4152 -3.06065 -12.9803
ltibia 25.6709
lfoot -21.0115 10.5638
ltoes -11.8277
